#!OML:ASF F:\VICON\USERDATA\INSTALL\rory3\rory3.ASF
:FULLY-SPECIFIED
:DEGREES
312
root -0.0256514 18.3892 -8.56842 -173.176 -11.3162 -171.982
lowerback 18.5605 -4.76646 6.85561
upperback -6.0319 -4.31181 7.21019
thorax -17.5415 -2.34372 6.14278
lowerneck -21.2086 -0.422761 3.00435
upperneck 33.7468 2.33204 -5.32158
head 15.5448 1.3353 -2.1338
rclavicle 2.43511e-014 -4.13472e-014
rhumerus 4.97887 35.6761 0.190817
rradius 83.9204
rwrist -88.9889
rhand 39.577 -3.17194
rfingers 7.12502
rthumb 62.0436 -14.6114
lclavicle 2.43511e-014 -4.13472e-014
lhumerus 35.375 -7.2771 45.1928
lradius 90.8926
lwrist 37.5543
lhand 36.4032 17.0342
lfingers 7.12502
lthumb 59.3527 31.4766
rfemur -98.1267 -13.2977 10.7554
rtibia 90.9783
rfoot 26.0504 -28.3914
rtoes 42.4722
lfemur -24.1846 -4.67842 -15.6682
ltibia 36.1626
lfoot 7.19318 15.1689
ltoes 21.4803
313
root -0.0466576 18.746 -8.74081 -171.871 -12.6099 -171.08
lowerback 18.332 -5.40156 8.87539
upperback -7.83299 -4.63816 7.82774
thorax -19.2461 -2.80654 5.62777
lowerneck -19.6966 -0.479601 3.10967
upperneck 34.8047 2.88488 -5.74677
head 15.7468 1.68631 -2.21252
rclavicle -7.2457e-014 3.97569e-014
rhumerus 5.09876 38.4686 1.97677
rradius 78.7584
rwrist -89.3433
rhand 39.1737 -3.29033
rfingers 7.12502
rthumb 61.7067 -15.1447
lclavicle -7.2457e-014 3.97569e-014
lhumerus 35.2779 -9.12598 41.2159
lradius 86.1784
lwrist 29.4028
lhand 35.7705 16.3112
lfingers 7.12502
lthumb 58.8063 31.2863
rfemur -97.4283 -14.0722 9.47341
rtibia 84.8087
rfoot 25.1396 -28.6447
rtoes 43.8145
lfemur -23.5868 1.9588 -14.6541
ltibia 33.7968
lfoot 0.0864382 21.1444
ltoes 40.1765
314
root -0.0774889 19.0891 -8.90906 -170.553 -14.2954 -170.373
lowerback 17.9766 -5.92128 11.08
upperback -8.97592 -4.86271 8.2667
thorax -20.6489 -3.21575 5.19862
lowerneck -20.3506 -0.699302 2.54396
upperneck 36.2349 3.15887 -5.79481
head 16.6423 1.79696 -2.09321
rclavicle -1.88845e-014 6.99722e-014
rhumerus 5.10696 40.0304 4.00159
rradius 73.3522
rwrist -89.7023
rhand 38.623 -4.09581
rfingers 7.12502
rthumb 61.2442 -16.5
lclavicle -1.88845e-014 6.99722e-014
lhumerus 36.1932 -10.4883 37.7348
lradius 80.8797
lwrist 20.2579
lhand 35.3301 14.5852
lfingers 7.12502
lthumb 58.4244 29.9196
rfemur -96.4941 -15.4352 7.87086
rtibia 78.7861
rfoot 23.6634 -28.6489
rtoes 42.719
lfemur -22.4092 5.29614 -13.2647
ltibia 31.37
lfoot 10.02 19.224
ltoes 11.5408
315
root -0.120178 19.4145 -9.05739 -169.196 -16.1484 -169.644
lowerback 15.2253 -6.30741 13.6482
upperback -8.84333 -5.37073 8.21786
thorax -19.0252 -3.82422 3.6161
lowerneck -20.6525 -0.725531 2.72276
upperneck 35.9437 2.7573 -5.46129
head 16.5305 1.65334 -2.06315
rclavicle 3.28989e-014 8.11041e-014
rhumerus 3.70249 39.1001 4.01799
rradius 67.7476
rwrist -88.9788
rhand 37.5623 -4.30817
rfingers 7.12502
rthumb 60.3455 -17.7206
lclavicle 3.28989e-014 8.11041e-014
lhumerus 39.2425 -10.6566 33.3633
lradius 75.2175
lwrist 11.2338
lhand 35.8592 13.3156
lfingers 7.12502
lthumb 58.8831 28.2173
rfemur -95.4114 -17.1238 6.17571
rtibia 72.8873
rfoot 22.7884 -28.9315
rtoes 41.0695
lfemur -20.7648 4.33004 -11.2414
ltibia 28.6843
lfoot 11.9508 20.061
ltoes 35.3635
316
root -0.1227 19.746 -9.24341 -168.247 -17.6647 -167.972
lowerback 12.0632 -6.28548 16.2555
upperback -7.97273 -5.71457 8.42038
thorax -16.8863 -4.21107 2.55841
lowerneck -21.0441 -0.640277 2.68056
upperneck 35.0279 2.48877 -5.23912
head 16.1386 1.46993 -2.01506
rclavicle -2.8625e-014 -6.36111e-015
rhumerus 2.17488 36.9709 3.9384
rradius 62.2263
rwrist -87.1975
rhand 36.1618 -4.43937
rfingers 7.12502
rthumb 59.1446 -19.0874
lclavicle -2.8625e-014 -6.36111e-015
lhumerus 42.1038 -10.4927 29.2832
lradius 68.472
lwrist 5.24785
lhand 33.4658 10.9017
lfingers 7.12502
lthumb 56.793 27.6589
rfemur -93.7569 -17.1346 4.05718
rtibia 67.3257
rfoot 19.0505 -32.3961
rtoes 44.3178
lfemur -18.5975 3.51449 -7.88969
ltibia 25.7979
lfoot 13.4667 24.3909
ltoes 36.9079
317
root -0.135676 20.0661 -9.44826 -167.474 -19.2388 -166.575
lowerback 9.15157 -6.23088 18.5854
upperback -7.35179 -6.13874 8.80064
thorax -14.5828 -4.61363 1.38911
lowerneck -22.3413 -0.449268 2.59888
upperneck 34.3248 2.42134 -5.15299
head 16.0932 1.32306 -1.99273
rclavicle -4.05521e-014 -4.6118e-014
rhumerus 0.431813 34.0273 3.69317
rradius 56.9902
rwrist -84.1687
rhand 35.7576 -4.93988
rfingers 7.12502
rthumb 58.7952 -19.9257
lclavicle -4.05521e-014 -4.6118e-014
lhumerus 44.6334 -9.84857 26.1634
lradius 61.7855
lwrist 0.71291
lhand 31.8192 10.1844
lfingers 7.12502
lthumb 55.3347 28.0782
rfemur -91.6561 -17.1095 0.831375
rtibia 62.3275
rfoot 11.8615 -36.2858
rtoes 46.9765
lfemur -15.7971 2.9088 -4.88604
ltibia 22.6477
lfoot 13.9566 30.3293
ltoes 26.1514
